<?xml version="1.0" encoding="UTF-8"?>
<svg version="1.1" xmlns="http://www.w3.org/2000/svg" width="400" height="200">
<path d="M0 0 C13.24125 -0.020625 26.4825 -0.04125 40.125 -0.0625 C46.35528076 -0.07615601 46.35528076 -0.07615601 52.71142578 -0.09008789 C57.85327148 -0.09460449 57.85327148 -0.09460449 60.27389526 -0.09544373 C61.93494944 -0.09696148 63.59600263 -0.10044063 65.25704956 -0.10557556 C103.14001963 -0.21665031 103.14001963 -0.21665031 113 8 C121.1279683 16.1279683 122.1431704 26.71228507 122.16113281 37.82446289 C122.16858017 38.94806213 122.16858017 38.94806213 122.17617798 40.09436035 C122.19068926 42.55380196 122.19758466 45.01317899 122.203125 47.47265625 C122.20736607 48.74417447 122.20736607 48.74417447 122.21169281 50.04137993 C122.22664412 54.53141461 122.23589798 59.02141752 122.24023438 63.51147461 C122.24569908 68.11174147 122.26969634 72.71170938 122.29820633 77.31188297 C122.31698472 80.88190005 122.32204642 84.45184746 122.32357025 88.02190971 C122.32656543 89.71570906 122.33448555 91.40950812 122.34775543 93.10325813 C122.55983399 122.26435591 122.55983399 122.26435591 112.3125 132.75 C104.21438504 138.96673472 93.44288255 139.15509439 83.66821289 139.11352539 C82.74553588 139.11364593 81.82285887 139.11376646 80.87222195 139.11389065 C77.90567494 139.11314831 74.93919192 139.10555119 71.97265625 139.09765625 C70.13309764 139.09618472 68.29353861 139.09516531 66.45397949 139.09460449 C59.65681325 139.08937601 52.85965599 139.07541474 46.0625 139.0625 C30.861875 139.041875 15.66125 139.02125 0 139 C0 93.13 0 47.26 0 0 Z M27 22 C27 53.68 27 85.36 27 118 C53.76753476 121.04347887 53.76753476 121.04347887 90 113 C98.62778617 103.38618113 96.27189437 87.04960836 96 75 C95.97534668 73.79698242 95.95069336 72.59396484 95.92529297 71.35449219 C95.83856198 67.40253291 95.73490881 63.45137925 95.625 59.5 C95.5943042 58.24848145 95.5636084 56.99696289 95.53198242 55.70751953 C95.4884229 40.31691745 95.4884229 40.31691745 89 27 C83.68409888 22.81514167 79.38580193 21.87001042 72.75073242 21.88647461 C71.19847961 21.88665588 71.19847961 21.88665588 69.61486816 21.88684082 C68.53926636 21.89195679 67.46366455 21.89707275 66.35546875 21.90234375 C64.85916931 21.90385437 64.85916931 21.90385437 63.3326416 21.90539551 C59.61758265 21.91061507 55.90254013 21.92457633 52.1875 21.9375 C43.875625 21.958125 35.56375 21.97875 27 22 Z " fill="#3D6FFF" transform="translate(144,31)"/>
<path d="M0 0 C3 1 3 1 4.41943359 3.33129883 C4.90750488 4.36279053 5.39557617 5.39428223 5.8984375 6.45703125 C6.45321777 7.61750977 7.00799805 8.77798828 7.57958984 9.97363281 C8.17829957 11.25314309 8.77676274 12.53276876 9.375 13.8125 C10.00262127 15.1354694 10.6310513 16.45805539 11.26025391 17.78027344 C15.89792751 27.55136128 20.43352064 37.37076277 24.96240234 47.19262695 C29.19763628 56.35028541 33.57817099 65.43135397 38 74.5 C44.17114832 87.15741596 50.17404539 99.88010651 56.0703125 112.66796875 C59.14480126 119.33340378 62.28612128 125.96612859 65.46264648 132.58349609 C68 137.89496641 68 137.89496641 68 139 C58.76 139 49.52 139 40 139 C36.9375 132.875 36.9375 132.875 35.81542969 130.62866211 C33.69341226 126.38127266 31.56672464 122.13627715 29.43423462 117.89413452 C21.83678353 102.77772831 14.35029258 87.62165664 7.11962891 72.32519531 C6.01380332 70.02866613 4.86183598 67.76038598 3.69921875 65.4921875 C2 62 2 62 2 60 C1.34 60 0.68 60 0 60 C-0.26756104 60.85730713 -0.53512207 61.71461426 -0.81079102 62.59790039 C-2.00807453 66.02309969 -3.43478339 69.17442815 -5.02734375 72.43359375 C-5.32838013 73.05238907 -5.6294165 73.67118439 -5.9395752 74.30873108 C-6.93533707 76.35340527 -7.93634572 78.39546144 -8.9375 80.4375 C-9.63907972 81.8748407 -10.34032606 83.31234416 -11.04125977 84.75 C-12.54793899 87.83921392 -14.0566629 90.92741925 -15.56640625 94.01513672 C-18.13764763 99.27736122 -20.69408946 104.54672297 -23.25 109.81640625 C-24.55241308 112.49923652 -25.85511925 115.18192419 -27.1579895 117.86453247 C-28.01130168 119.62213942 -28.86406423 121.38001332 -29.71627808 123.13815308 C-30.91172854 125.60349062 -32.10982213 128.06752604 -33.30859375 130.53125 C-33.84812683 131.6460952 -33.84812683 131.6460952 -34.39855957 132.78346252 C-36.88587472 137.88587472 -36.88587472 137.88587472 -38 139 C-39.99964982 139.08758003 -42.0023611 139.10696576 -44.00390625 139.09765625 C-45.21884766 139.09443359 -46.43378906 139.09121094 -47.68554688 139.08789062 C-48.96494141 139.07951172 -50.24433594 139.07113281 -51.5625 139.0625 C-52.84576172 139.05798828 -54.12902344 139.05347656 -55.45117188 139.04882812 C-58.63416022 139.03699545 -61.81705762 139.02051068 -65 139 C-64.36462802 134.6489277 -62.80216045 131.20780192 -60.859375 127.27734375 C-60.54119812 126.62850723 -60.22302124 125.97967072 -59.89520264 125.31117249 C-59.20963943 123.91402945 -58.52158723 122.51810552 -57.83129883 121.12329102 C-55.98408959 117.38925076 -54.15640444 113.64567981 -52.328125 109.90234375 C-51.9578418 109.14504974 -51.58755859 108.38775574 -51.20605469 107.60751343 C-47.87598965 100.78104543 -44.67115318 93.90183291 -41.5 87 C-36.46665264 76.0648092 -31.25636605 65.22640306 -25.97930908 54.40737915 C-20.63313485 43.44121791 -15.42226627 32.42126073 -10.3359375 21.33203125 C-7.03301881 14.14642622 -3.57935063 7.05203187 0 0 Z " fill="#3D6FFF" transform="translate(74,31)"/>
<path d="M0 0 C3 1 3 1 4.41943359 3.33129883 C4.90750488 4.36279053 5.39557617 5.39428223 5.8984375 6.45703125 C6.45321777 7.61750977 7.00799805 8.77798828 7.57958984 9.97363281 C8.17829957 11.25314309 8.77676274 12.53276876 9.375 13.8125 C10.00262127 15.1354694 10.6310513 16.45805539 11.26025391 17.78027344 C15.89792751 27.55136128 20.43352064 37.37076277 24.96240234 47.19262695 C29.19763628 56.35028541 33.57817099 65.43135397 38 74.5 C44.17114832 87.15741596 50.17404539 99.88010651 56.0703125 112.66796875 C59.14480126 119.33340378 62.28612128 125.96612859 65.46264648 132.58349609 C68 137.89496641 68 137.89496641 68 139 C58.76 139 49.52 139 40 139 C36.9375 132.875 36.9375 132.875 35.81542969 130.62866211 C33.69341226 126.38127266 31.56672464 122.13627715 29.43423462 117.89413452 C21.83678353 102.77772831 14.35029258 87.62165664 7.11962891 72.32519531 C6.01380332 70.02866613 4.86183598 67.76038598 3.69921875 65.4921875 C2 62 2 62 2 60 C1.34 60 0.68 60 0 60 C-0.26232422 60.8468335 -0.52464844 61.69366699 -0.79492188 62.56616211 C-2.05614452 66.15998231 -3.59994766 69.53249734 -5.28125 72.94140625 C-5.60726196 73.61015274 -5.93327393 74.27889923 -6.26916504 74.96791077 C-7.34260156 77.16784107 -8.42124109 79.36517536 -9.5 81.5625 C-10.25165697 83.0999242 -11.00295297 84.63752493 -11.75390625 86.17529297 C-12.93370939 88.59079643 -14.1139352 91.0060875 -15.2956543 93.4206543 C-18.24221115 99.44172535 -21.17161686 105.47094872 -24.09375 111.50390625 C-25.32810416 114.05025098 -26.56260328 116.5965254 -27.79711914 119.14279175 C-28.59894788 120.79740775 -29.40021763 122.45229476 -30.20092773 124.10745239 C-31.31951991 126.41893192 -32.44069886 128.72913904 -33.5625 131.0390625 C-34.06444885 132.07873924 -34.06444885 132.07873924 -34.57653809 133.13941956 C-36.88601522 137.88601522 -36.88601522 137.88601522 -38 139 C-39.99964982 139.08758003 -42.0023611 139.10696576 -44.00390625 139.09765625 C-45.21884766 139.09443359 -46.43378906 139.09121094 -47.68554688 139.08789062 C-48.96494141 139.07951172 -50.24433594 139.07113281 -51.5625 139.0625 C-52.84576172 139.05798828 -54.12902344 139.05347656 -55.45117188 139.04882812 C-58.63416022 139.03699545 -61.81705762 139.02051068 -65 139 C-64.36462802 134.6489277 -62.80216045 131.20780192 -60.859375 127.27734375 C-60.54119812 126.62850723 -60.22302124 125.97967072 -59.89520264 125.31117249 C-59.20963943 123.91402945 -58.52158723 122.51810552 -57.83129883 121.12329102 C-55.98408959 117.38925076 -54.15640444 113.64567981 -52.328125 109.90234375 C-51.9578418 109.14504974 -51.58755859 108.38775574 -51.20605469 107.60751343 C-47.87598965 100.78104543 -44.67115318 93.90183291 -41.5 87 C-36.46665264 76.0648092 -31.25636605 65.22640306 -25.97930908 54.40737915 C-20.63313485 43.44121791 -15.42226627 32.42126073 -10.3359375 21.33203125 C-7.03301881 14.14642622 -3.57935063 7.05203187 0 0 Z " fill="#3D6FFF" transform="translate(331,31)"/>
</svg>
